<?xml version="1.0" encoding="utf-8"?>
<!-- Generator: Adobe Illustrator 23.0.3, SVG Export Plug-In . SVG Version: 6.00 Build 0)  -->
<svg version="1.1" id="Capa_1" xmlns="http://www.w3.org/2000/svg" xmlns:xlink="http://www.w3.org/1999/xlink" x="0px" y="0px"
	 viewBox="0 0 193.16 264.54" style="enable-background:new 0 0 193.16 264.54;" xml:space="preserve">
<style type="text/css">
	.st0{fill:#BD1220;}
	.st1{fill:#007C35;}
	.st2{fill:#231F20;}
	.st3{fill:#FFFFFF;}
</style>
<g>
	<polygon class="st0" points="25.03,190.79 25.03,192.19 24.34,192.89 22.94,192.89 22.24,192.19 22.24,190.79 22.94,190.1 
		24.34,190.1 	"/>
	<polygon class="st0" points="32.58,196.74 32.58,186.23 32.33,185.47 38.36,185.47 38.72,187.69 37.9,187.45 34.8,187.45 
		34.57,187.69 34.57,190.18 34.8,190.41 35.82,190.41 36.6,190.16 36.6,192.68 35.82,192.43 34.8,192.43 34.57,192.65 34.57,195.25 
		34.8,195.49 37.9,195.49 38.72,195.25 38.36,197.52 32.33,197.52 	"/>
	<polygon class="st0" points="44.67,189.27 44.91,188.51 44.91,187.72 44.67,187.5 43.13,187.5 42.89,187.72 42.89,190.26 
		43.13,190.49 45.92,190.49 46.92,191.49 46.92,196.52 45.92,197.52 41.91,197.52 40.86,196.52 40.86,194.49 40.64,193.73 
		43.15,193.73 42.89,194.49 42.89,195.28 43.13,195.51 44.67,195.51 44.91,195.28 44.91,192.75 44.67,192.51 41.91,192.51 
		40.86,191.49 40.86,186.45 41.91,185.47 45.92,185.47 46.92,186.45 46.92,188.51 47.19,189.27 	"/>
	<path class="st0" d="M54.18,197.52l0.17-0.48l-0.44-1.84l-0.24-0.24h-1.98l-0.24,0.24l-0.44,1.84l0.17,0.48h-2.52l0.4-0.81
		l2.47-10.55l-0.22-0.7h2.74l-0.22,0.7l2.47,10.55l0.4,0.81H54.18z M53.28,192.94l0.19-0.17l-0.78-3.85l-0.78,3.85l0.19,0.17H53.28z
		"/>
	<polygon class="st0" points="58.85,196.74 58.85,186.23 58.59,185.47 64.62,185.47 64.99,187.69 64.16,187.45 61.07,187.45 
		60.83,187.69 60.83,190.18 61.07,190.41 62.08,190.41 62.86,190.16 62.86,192.68 62.08,192.43 61.07,192.43 60.83,192.65 
		60.83,195.25 61.07,195.49 64.16,195.49 64.99,195.25 64.62,197.52 58.59,197.52 	"/>
	<path class="st0" d="M67.22,196.76v-10.52l-0.25-0.78h5.26l1.01,0.98v5.49l-1.01,1.02l0.87,3.76l0.32,0.81h-2.49l0.17-0.75
		l-0.86-3.63l-0.16-0.19h-0.65l-0.24,0.24v3.57l0.25,0.76h-2.49L67.22,196.76z M71.23,190.73v-3.01L71,187.5h-1.55l-0.24,0.22v3.01
		l0.24,0.22H71L71.23,190.73z"/>
	<path class="st0" d="M80.78,197.52l0.17-0.48l-0.44-1.84l-0.24-0.24h-1.98l-0.24,0.24l-0.44,1.84l0.17,0.48h-2.52l0.4-0.81
		l2.47-10.55l-0.22-0.7h2.74l-0.22,0.7l2.47,10.55l0.4,0.81H80.78z M79.88,192.94l0.19-0.17l-0.78-3.85l-0.78,3.85l0.19,0.17H79.88z
		"/>
	<polygon class="st0" points="90.16,197.52 90.16,195.49 93.96,187.5 90.85,187.5 90,187.72 90.38,185.47 96.18,185.47 
		96.18,187.45 92.35,195.49 95.47,195.49 96.29,195.25 95.91,197.52 	"/>
	<path class="st0" d="M103.56,197.52l0.17-0.48l-0.44-1.84l-0.24-0.24h-1.98l-0.24,0.24l-0.44,1.84l0.17,0.48h-2.52l0.4-0.81
		l2.47-10.55l-0.22-0.7h2.74l-0.22,0.7l2.47,10.55l0.4,0.81H103.56z M102.65,192.94l0.19-0.17l-0.78-3.85l-0.78,3.85l0.19,0.17
		H102.65z"/>
	<polygon class="st0" points="110.46,185.47 110.2,186.24 110.2,190.19 110.44,190.43 111.98,190.43 112.22,190.19 112.22,186.24 
		111.98,185.47 114.5,185.47 114.25,186.24 114.25,196.76 114.5,197.52 111.98,197.52 112.22,196.76 112.22,192.68 111.98,192.44 
		110.44,192.44 110.2,192.68 110.2,196.76 110.46,197.52 107.97,197.52 108.22,196.76 108.22,186.24 107.97,185.47 	"/>
	<path class="st0" d="M121.92,197.52l0.17-0.48l-0.44-1.84l-0.24-0.24h-1.98l-0.24,0.24l-0.44,1.84l0.17,0.48h-2.52l0.4-0.81
		l2.47-10.55l-0.22-0.7h2.74l-0.22,0.7l2.47,10.55l0.4,0.81H121.92z M121.02,192.94l0.19-0.17l-0.78-3.85l-0.78,3.85l0.19,0.17
		H121.02z"/>
	<path class="st0" d="M126.59,196.76v-10.52l-0.25-0.78h5.27l1.01,0.98v5.49l-1.01,1.02l0.87,3.76l0.32,0.81h-2.49l0.17-0.75
		l-0.86-3.63l-0.16-0.19h-0.65l-0.24,0.24v3.57l0.25,0.76h-2.49L126.59,196.76z M130.6,190.73v-3.01l-0.24-0.22h-1.55l-0.24,0.22
		v3.01l0.24,0.22h1.55L130.6,190.73z"/>
	<path class="st0" d="M135.37,196.76v-10.52l-0.25-0.78h5.27l1.01,0.98v5.49l-1.01,1.02l0.87,3.76l0.32,0.81h-2.49l0.17-0.75
		l-0.86-3.63l-0.16-0.19h-0.65l-0.24,0.24v3.57l0.25,0.76h-2.49L135.37,196.76z M139.39,190.73v-3.01l-0.24-0.22h-1.55l-0.24,0.22
		v3.01l0.24,0.22h1.55L139.39,190.73z"/>
	<path class="st0" d="M148.95,197.52l0.17-0.48l-0.44-1.84l-0.24-0.24h-1.98l-0.24,0.24l-0.44,1.84l0.17,0.48h-2.52l0.4-0.81
		l2.47-10.55l-0.22-0.7h2.74l-0.22,0.7l2.47,10.55l0.4,0.81H148.95z M148.05,192.94l0.19-0.17l-0.78-3.85l-0.78,3.85l0.19,0.17
		H148.05z"/>
	<polygon class="st0" points="158.44,197 156.61,192.59 155.6,194.35 155.6,196.74 155.85,197.52 153.36,197.52 153.61,196.74 
		153.61,186.24 153.36,185.47 155.85,185.47 155.6,186.24 155.6,190.56 158.26,185.81 158.1,185.47 160.92,185.47 160.16,186.43 
		157.88,190.38 160.42,196.57 161.15,197.52 158.26,197.52 	"/>
	<polygon class="st0" points="170.76,190.79 170.76,192.19 170.06,192.89 168.67,192.89 167.97,192.19 167.97,190.79 168.67,190.1 
		170.06,190.1 	"/>
	<polygon class="st1" points="17.93,205.1 18.94,204.12 22.96,204.12 23.95,205.1 23.95,207.13 24.21,207.89 21.69,207.89 
		21.96,207.13 21.96,206.34 21.73,206.1 20.18,206.1 19.96,206.34 19.96,213.9 20.18,214.14 21.73,214.14 21.96,213.9 21.96,211.73 
		21.38,211.73 20.94,209.7 24.21,209.7 23.95,210.49 23.95,215.17 22.96,216.17 18.94,216.17 17.93,215.17 	"/>
	<polygon class="st1" points="26.59,216.17 26.84,215.41 26.84,204.9 26.59,204.12 29.08,204.12 28.82,204.9 28.82,215.41 
		29.08,216.17 	"/>
	<polygon class="st1" points="31.47,216.17 31.73,215.41 31.73,204.9 31.47,204.12 33.71,204.12 36.63,211.46 36.63,204.9 
		36.37,204.12 38.9,204.12 38.64,204.9 38.64,215.41 38.9,216.17 36.63,216.17 33.71,208.84 33.71,215.41 33.96,216.17 	"/>
	<polygon class="st1" points="50.25,212.71 48.49,208.48 48.49,215.41 48.74,216.17 46.25,216.17 46.51,215.41 46.51,204.9 
		46.25,204.12 48.49,204.12 50.89,209.57 53.28,204.12 55.52,204.12 55.26,204.9 55.26,215.41 55.52,216.17 53.03,216.17 
		53.28,215.41 53.28,208.48 51.52,212.71 	"/>
	<polygon class="st1" points="58.04,205.1 59.05,204.12 63.07,204.12 64.07,205.1 64.07,207.13 64.32,207.89 61.8,207.89 
		62.07,207.13 62.07,206.34 61.84,206.1 60.29,206.1 60.07,206.34 60.07,213.9 60.29,214.14 61.84,214.14 62.07,213.9 62.07,211.73 
		61.5,211.73 61.05,209.7 64.32,209.7 64.07,210.49 64.07,215.17 63.07,216.17 59.05,216.17 58.04,215.17 	"/>
	<polygon class="st1" points="71.92,215.39 71.92,204.88 71.66,204.12 77.69,204.12 78.05,206.34 77.23,206.1 74.14,206.1 
		73.9,206.34 73.9,208.83 74.14,209.07 75.15,209.07 75.93,208.81 75.93,211.33 75.15,211.08 74.14,211.08 73.9,211.3 73.9,213.9 
		74.14,214.14 77.23,214.14 78.05,213.9 77.69,216.17 71.66,216.17 	"/>
	<path class="st1" d="M85.3,204.12l1.01,0.98v10.07l-1.01,1h-5.27l0.22-0.78v-10.51l-0.22-0.76H85.3z M82.51,214.14h1.54l0.24-0.24
		v-7.56l-0.24-0.24h-1.54l-0.24,0.24v7.56L82.51,214.14z"/>
	<polygon class="st1" points="88.82,216.17 89.08,215.41 89.08,204.9 88.82,204.12 91.31,204.12 91.06,204.9 91.06,215.41 
		91.31,216.17 	"/>
	<polygon class="st1" points="93.71,216.17 93.71,214.14 97.52,206.15 94.41,206.15 93.55,206.37 93.93,204.12 99.74,204.12 
		99.74,206.1 95.9,214.14 99.02,214.14 99.85,213.9 99.47,216.17 	"/>
	<polygon class="st1" points="102.08,216.17 102.34,215.41 102.34,204.9 102.08,204.12 104.57,204.12 104.32,204.9 104.32,215.41 
		104.57,216.17 	"/>
	<path class="st1" d="M113.12,215.17l-1,1h-4.01l-1.01-1V205.1l1.01-0.98h4.01l1,0.98V215.17z M109.33,206.15l-0.24,0.22v7.56
		l0.24,0.22h1.52l0.24-0.22v-7.56l-0.24-0.22H109.33z"/>
	<path class="st1" d="M125.86,204.12l1.01,0.98v3.93l-1.03,1l1.03,1.01v4.12l-1.01,1h-5.26l0.25-0.78v-10.51l-0.25-0.76H125.86z
		 M123.08,209.03h1.54l0.24-0.22v-2.47l-0.24-0.24h-1.54l-0.24,0.24v2.47L123.08,209.03z M123.08,211.05l-0.24,0.24v2.62l0.24,0.24
		h1.54l0.24-0.24v-2.62l-0.24-0.24H123.08z"/>
	<polygon class="st1" points="129.63,215.39 129.63,204.88 129.38,204.12 135.41,204.12 135.77,206.34 134.95,206.1 131.85,206.1 
		131.62,206.34 131.62,208.83 131.85,209.07 132.87,209.07 133.65,208.81 133.65,211.33 132.87,211.08 131.85,211.08 131.62,211.3 
		131.62,213.9 131.85,214.14 134.95,214.14 135.77,213.9 135.41,216.17 129.38,216.17 	"/>
	<path class="st1" d="M138.01,215.41V204.9l-0.25-0.78h5.26l1.02,0.98v5.49l-1.02,1.02l0.87,3.76l0.32,0.81h-2.49l0.17-0.75
		l-0.86-3.63l-0.16-0.19h-0.65l-0.24,0.24v3.57l0.25,0.76h-2.49L138.01,215.41z M142.02,209.38v-3.01l-0.24-0.22h-1.55l-0.24,0.22
		v3.01l0.24,0.22h1.55L142.02,209.38z"/>
	<polygon class="st1" points="146.79,215.39 146.79,204.88 146.54,204.12 152.57,204.12 152.93,206.34 152.11,206.1 149.01,206.1 
		148.78,206.34 148.78,208.83 149.01,209.07 150.03,209.07 150.81,208.81 150.81,211.33 150.03,211.08 149.01,211.08 148.78,211.3 
		148.78,213.9 149.01,214.14 152.11,214.14 152.93,213.9 152.57,216.17 146.54,216.17 	"/>
	<polygon class="st1" points="154.91,216.17 154.91,214.14 158.72,206.15 155.61,206.15 154.76,206.37 155.14,204.12 160.94,204.12 
		160.94,206.1 157.1,214.14 160.23,214.14 161.05,213.9 160.67,216.17 	"/>
	<polygon class="st1" points="163.29,216.17 163.54,215.41 163.54,204.9 163.29,204.12 165.78,204.12 165.52,204.9 165.52,215.41 
		165.78,216.17 	"/>
	<path class="st1" d="M173.2,216.17l0.17-0.48l-0.44-1.84l-0.24-0.24h-1.98l-0.24,0.24l-0.44,1.84l0.17,0.48h-2.52l0.4-0.81
		l2.47-10.55l-0.22-0.7h2.74l-0.22,0.7l2.47,10.55l0.4,0.81H173.2z M172.3,211.59l0.19-0.18l-0.78-3.85l-0.78,3.85l0.19,0.18H172.3z
		"/>
	<g>
		<path class="st2" d="M177.28,122.51c1.74,0.21,3.38,0.41,5.12,0.84c-0.71,0.42-1.63,1.05-2.04,1.37
			c-0.72,5.58-1.54,13.47-5.84,13.47c-3.17,0-4.09-1.58-4.09-4.84c0-2.21,0.41-5.15,0.82-8.2c1.13-8.63,2.36-16.95,3.59-25.58
			c0.92-6.73,1.74-11.26,5.73-11.26c1.23,0,3.79,0.43,5.13,0.74c0.72,1.69,1.64,3.68,2.46,5.47c0.91,0.43,1.94,0.53,2.77,0.74
			c0.71-4.1,1.43-8.31,2.25-11.99c0,0-5.23-2.42-11.27-3.47c-1.23-0.21-2.25-0.32-3.38-0.32c-7.68,0-11.88,5.59-13.02,15.58
			c-1.22,10.73-2.55,21.26-3.79,31.89c-0.2,1.79-0.31,3.37-0.31,4.94c0,9.05,3.49,15.06,12.71,15.06c7.17,0,11.89-5.26,13.63-16
			l1.43-8.74c0.52-0.32,1.95-1.48,3.28-2.42l0.52-2.74c-3.59-0.74-9.53-1.89-14.66-2.63C177.99,117.13,177.38,119.66,177.28,122.51"
			/>
		<path class="st2" d="M33,111.66c-4.61,0.42-9.52,1.26-14.23,2.1l1.22,7.89c1.64-0.31,3.39-0.53,5.12-0.84
			c-0.61,0.84-1.02,1.47-1.54,2.1c0.42,2.85,1.13,9.05,1.13,10.22c0,2.95-1.22,4.84-4.5,4.84c-2.77,0-3.69-3.79-5.12-11.69
			c-1.54-8.52-2.77-17.05-4.11-25.57c-0.4-2.63-0.81-4.94-0.81-6.94c0-3.16,0.92-5.26,3.9-6c1.33-0.32,2.76-0.52,4.09-0.52
			c1.23,1.48,2.57,2.95,3.89,4.73c0.92-0.11,1.85-0.53,2.87-0.63c-0.52-4-1.13-8-1.64-12.1c-3.49-0.1-5.13-0.21-6.56-0.21
			c-1.43,0-2.76,0.1-5.22,0.52C3.28,80.93,0,86.09,0,93.34c0,1.9,0.2,3.91,0.62,6.11c1.94,10.53,3.89,20.84,5.95,31.36
			c2.05,10.74,6.14,16,12.91,16c8.91,0,13.33-5.79,13.33-15.26c0-1.58-0.1-3.26-0.31-5.05c-0.31-3.06-0.83-6.21-1.13-9.37
			c0.62-1.05,1.34-2.1,2.05-2.95C33.2,113.24,33.1,112.61,33,111.66"/>
		<path class="st2" d="M143.57,75.57c-3.8,15.88-11.37,45.25-11.99,47.98c-0.2-2.84-2.57-32.72-4.3-49.46
			c-5.32-0.31-11.38-0.63-17.51-0.73c0,0.94,0,1.79-0.1,2.73c1.01,1.05,1.85,2,2.66,3.05c-0.92,20-1.94,40.21-3.18,60.19
			c3.28,0.11,6.15,0.21,8.92,0.42c1.23-15.89,2.05-31.89,2.87-47.67h0.32c0.82,8.2,1.22,16.41,1.74,24.73
			c1.43,7.79,2.77,15.68,4,23.47c2.04,0.21,4.1,0.32,6.46,0.53c2.05-7.47,4.71-15.05,7.38-22.52c1.84-8.21,3.99-15.99,5.84-23.99
			h0.31c-1.53,15.68-3.28,31.68-4.71,47.46c3.69,0.42,7.28,0.84,10.96,1.48c0.11-0.95,0.21-1.89,0.41-2.73
			c-0.82-1.05-1.54-2.01-2.25-3.26c1.84-20.1,3.89-40.21,5.64-60.1C153.5,76.51,148.48,75.98,143.57,75.57"/>
		<path class="st2" d="M84.85,139.34c3.17-0.1,6.35-0.21,9.63-0.21v-2.63l-2.66-2.84c-0.1-20.31-0.3-40.31-0.51-60.41
			c-3.28,0-6.46,0.11-9.43,0.11c0,13.47,0.31,26.73,0.92,39.68c-0.61-2.32-1.43-5.16-2.36-8.11c-3.59-10.21-7.17-20.63-11.06-31.15
			c-3.69,0.11-7.89,0.42-12.09,0.74c0.1,0.85,0.31,1.79,0.31,2.63l3.08,2.74c1.43,20.31,2.66,40.41,3.58,60.51
			c3.28-0.21,6.04-0.43,9.01-0.52c-0.61-13.05-1.23-26.11-2.15-38.94c0.92,2.21,1.74,4.73,2.55,7.58
			C77.27,118.5,80.96,128.92,84.85,139.34"/>
		<path class="st2" d="M55.95,138.49c-0.92-0.73-1.74-1.68-2.67-2.62c-1.74-20-3.58-40.21-5.42-60.52
			c-4.41,0.42-8.91,0.94-13.53,1.58c0.1,0.94,0.21,1.89,0.41,2.72c1.03,0.75,2.05,1.69,3.07,2.53c2.26,20.21,4.3,40.31,5.84,60.41
			c4-0.52,8.61-1.05,12.6-1.47L55.95,138.49z"/>
		<path class="st2" d="M99.73,63.62l3.08,0.06c7.65,0.12,15.18,0.61,20.87,1.01l2.84,0.23l2.75,0.27c3.97,0.39,7.55,0.93,10.89,1.63
			l0.77,0.2l0.44,0.07c0.21,0.03,0.43,0.01,0.62-0.05c0.19-0.06,0.32-0.15,0.37-0.25c0.05-0.11,0.02-0.22-0.09-0.31
			c-0.11-0.1-0.29-0.16-0.5-0.19l-0.92-0.22c-3.5-0.74-7.18-1.29-11.27-1.69l-2.77-0.27l-2.88-0.24c-5.74-0.41-13.32-0.9-21.05-1.02
			l-3.1-0.06l-3.12-0.01l-3.12,0.01l-3.09,0.04c-8.13,0.17-16.19,0.6-23.94,1.27l-2.82,0.26l-2.7,0.29
			c-3.16,0.38-5.89,0.83-8.64,1.41l-0.65,0.18l-0.26,0.05c-0.42,0.07-0.65,0.31-0.51,0.52c0.11,0.17,0.42,0.28,0.77,0.28l0.16,0
			l1.18-0.27c2.61-0.55,5.26-0.99,8.31-1.36l2.66-0.29l2.79-0.26c7.67-0.66,15.66-1.09,23.72-1.26l3.06-0.04l3.09-0.01L99.73,63.62z
			"/>
		<path class="st2" d="M83.78,6.83c0,0.13-0.1,0.24-0.23,0.24c-0.13,0-0.23-0.11-0.23-0.24V2.99c0-0.13,0.1-0.24,0.23-0.24
			c0.13,0,0.23,0.11,0.23,0.24V6.83z M83.55,2.38c-0.33,0-0.6,0.27-0.6,0.61v3.84c0,0.34,0.27,0.61,0.6,0.61
			c0.33,0,0.6-0.28,0.6-0.61V2.99C84.14,2.65,83.88,2.38,83.55,2.38"/>
		<path class="st2" d="M85.41,6.83c0,0.13-0.1,0.24-0.23,0.24c-0.13,0-0.23-0.11-0.23-0.24V2.99c0-0.13,0.1-0.24,0.23-0.24
			c0.13,0,0.23,0.11,0.23,0.24V6.83z M85.18,2.38c-0.33,0-0.6,0.27-0.6,0.61v3.84c0,0.34,0.27,0.61,0.6,0.61
			c0.33,0,0.6-0.28,0.6-0.61V2.99C85.77,2.65,85.51,2.38,85.18,2.38"/>
		<path class="st2" d="M87.04,6.83c0,0.13-0.1,0.24-0.23,0.24c-0.13,0-0.23-0.11-0.23-0.24V2.99c0-0.13,0.1-0.24,0.23-0.24
			c0.13,0,0.23,0.11,0.23,0.24V6.83z M86.81,2.38c-0.33,0-0.6,0.27-0.6,0.61v3.84c0,0.34,0.27,0.61,0.6,0.61
			c0.33,0,0.6-0.28,0.6-0.61V2.99C87.4,2.65,87.13,2.38,86.81,2.38"/>
		<path class="st2" d="M88.66,6.83c0,0.13-0.1,0.24-0.23,0.24c-0.13,0-0.23-0.11-0.23-0.24V2.99c0-0.13,0.1-0.24,0.23-0.24
			c0.13,0,0.23,0.11,0.23,0.24V6.83z M88.43,2.38c-0.33,0-0.6,0.27-0.6,0.61v3.84c0,0.34,0.27,0.61,0.6,0.61s0.6-0.28,0.6-0.61V2.99
			C89.03,2.65,88.76,2.38,88.43,2.38"/>
		<path class="st2" d="M90.29,6.83c0,0.13-0.1,0.24-0.23,0.24c-0.13,0-0.23-0.11-0.23-0.24V2.99c0-0.13,0.1-0.24,0.23-0.24
			c0.13,0,0.23,0.11,0.23,0.24V6.83z M90.06,2.38c-0.33,0-0.6,0.27-0.6,0.61v3.84c0,0.34,0.27,0.61,0.6,0.61
			c0.33,0,0.6-0.28,0.6-0.61V2.99C90.66,2.65,90.39,2.38,90.06,2.38"/>
		<path class="st2" d="M91.92,6.83c0,0.13-0.1,0.24-0.23,0.24c-0.13,0-0.23-0.11-0.23-0.24V2.99c0-0.13,0.1-0.24,0.23-0.24
			c0.13,0,0.23,0.11,0.23,0.24V6.83z M91.69,2.38c-0.33,0-0.6,0.27-0.6,0.61v3.84c0,0.34,0.27,0.61,0.6,0.61s0.6-0.28,0.6-0.61V2.99
			C92.29,2.65,92.02,2.38,91.69,2.38"/>
		<path class="st2" d="M93.55,6.83c0,0.13-0.1,0.24-0.23,0.24c-0.13,0-0.23-0.11-0.23-0.24V2.99c0-0.13,0.1-0.24,0.23-0.24
			c0.13,0,0.23,0.11,0.23,0.24V6.83z M93.32,2.38c-0.33,0-0.6,0.27-0.6,0.61v3.84c0,0.34,0.27,0.61,0.6,0.61
			c0.33,0,0.6-0.28,0.6-0.61V2.99C93.92,2.65,93.65,2.38,93.32,2.38"/>
		<path class="st2" d="M95.18,6.83c0,0.13-0.1,0.24-0.23,0.24c-0.13,0-0.23-0.11-0.23-0.24V2.99c0-0.13,0.1-0.24,0.23-0.24
			c0.13,0,0.23,0.11,0.23,0.24V6.83z M94.95,2.38c-0.33,0-0.6,0.27-0.6,0.61v3.84c0,0.34,0.27,0.61,0.6,0.61
			c0.33,0,0.6-0.28,0.6-0.61V2.99C95.55,2.65,95.28,2.38,94.95,2.38"/>
		<path class="st2" d="M96.81,6.83c0,0.13-0.1,0.24-0.23,0.24c-0.13,0-0.23-0.11-0.23-0.24V2.99c0-0.13,0.1-0.24,0.23-0.24
			c0.13,0,0.23,0.11,0.23,0.24V6.83z M96.58,2.38c-0.33,0-0.6,0.27-0.6,0.61v3.84c0,0.34,0.27,0.61,0.6,0.61
			c0.33,0,0.6-0.28,0.6-0.61V2.99C97.18,2.65,96.91,2.38,96.58,2.38"/>
		<path class="st2" d="M98.44,6.83c0,0.13-0.1,0.24-0.23,0.24c-0.13,0-0.23-0.11-0.23-0.24V2.99c0-0.13,0.1-0.24,0.23-0.24
			c0.13,0,0.23,0.11,0.23,0.24V6.83z M98.21,2.38c-0.33,0-0.6,0.27-0.6,0.61v3.84c0,0.34,0.27,0.61,0.6,0.61s0.6-0.28,0.6-0.61V2.99
			C98.8,2.65,98.54,2.38,98.21,2.38"/>
		<path class="st2" d="M100.07,6.83c0,0.13-0.1,0.24-0.23,0.24c-0.13,0-0.23-0.11-0.23-0.24V2.99c0-0.13,0.1-0.24,0.23-0.24
			c0.13,0,0.23,0.11,0.23,0.24V6.83z M99.84,2.38c-0.33,0-0.6,0.27-0.6,0.61v3.84c0,0.34,0.27,0.61,0.6,0.61
			c0.33,0,0.6-0.28,0.6-0.61V2.99C100.43,2.65,100.17,2.38,99.84,2.38"/>
		<path class="st2" d="M101.7,6.83c0,0.13-0.1,0.24-0.23,0.24c-0.13,0-0.23-0.11-0.23-0.24V2.99c0-0.13,0.1-0.24,0.23-0.24
			c0.13,0,0.23,0.11,0.23,0.24V6.83z M101.47,2.38c-0.33,0-0.6,0.27-0.6,0.61v3.84c0,0.34,0.27,0.61,0.6,0.61
			c0.33,0,0.6-0.28,0.6-0.61V2.99C102.06,2.65,101.8,2.38,101.47,2.38"/>
		<path class="st2" d="M103.33,6.83c0,0.13-0.1,0.24-0.23,0.24c-0.13,0-0.23-0.11-0.23-0.24V2.99c0-0.13,0.1-0.24,0.23-0.24
			c0.13,0,0.23,0.11,0.23,0.24V6.83z M103.1,2.38c-0.33,0-0.6,0.27-0.6,0.61v3.84c0,0.34,0.27,0.61,0.6,0.61s0.6-0.28,0.6-0.61V2.99
			C103.69,2.65,103.42,2.38,103.1,2.38"/>
		<path class="st2" d="M104.95,6.83c0,0.13-0.1,0.24-0.23,0.24c-0.13,0-0.23-0.11-0.23-0.24V2.99c0-0.13,0.1-0.24,0.23-0.24
			c0.13,0,0.23,0.11,0.23,0.24V6.83z M104.72,2.38c-0.33,0-0.6,0.27-0.6,0.61v3.84c0,0.34,0.27,0.61,0.6,0.61
			c0.33,0,0.6-0.28,0.6-0.61V2.99C105.32,2.65,105.05,2.38,104.72,2.38"/>
		<path class="st2" d="M106.58,6.83c0,0.13-0.1,0.24-0.23,0.24c-0.13,0-0.23-0.11-0.23-0.24V2.99c0-0.13,0.1-0.24,0.23-0.24
			c0.13,0,0.23,0.11,0.23,0.24V6.83z M106.35,2.38c-0.33,0-0.6,0.27-0.6,0.61v3.84c0,0.34,0.27,0.61,0.6,0.61s0.6-0.28,0.6-0.61
			V2.99C106.95,2.65,106.68,2.38,106.35,2.38"/>
		<path class="st2" d="M108.21,6.83c0,0.13-0.1,0.24-0.23,0.24c-0.13,0-0.23-0.11-0.23-0.24V2.99c0-0.13,0.1-0.24,0.23-0.24
			c0.13,0,0.23,0.11,0.23,0.24V6.83z M107.98,2.38c-0.33,0-0.6,0.27-0.6,0.61v3.84c0,0.34,0.27,0.61,0.6,0.61
			c0.33,0,0.6-0.28,0.6-0.61V2.99C108.58,2.65,108.31,2.38,107.98,2.38"/>
		<path class="st2" d="M109.84,6.83c0,0.13-0.1,0.24-0.23,0.24c-0.13,0-0.23-0.11-0.23-0.24V2.99c0-0.13,0.1-0.24,0.23-0.24
			c0.13,0,0.23,0.11,0.23,0.24V6.83z M109.61,2.38c-0.33,0-0.6,0.27-0.6,0.61v3.84c0,0.34,0.27,0.61,0.6,0.61
			c0.33,0,0.6-0.28,0.6-0.61V2.99C110.21,2.65,109.94,2.38,109.61,2.38"/>
		<path class="st2" d="M78.59,35.87c-4.21,1.75-17.94,4.5-25.09,11.86c-7.15,7.36-6.16,18.59-6.16,18.59s0.36-0.57,2.9-1.52
			c2.65-0.99,7.35-1.7,11.36-2.27c3.93-0.56,8.01-1.33,8.01-5.82c0-8.07,17.11-20.38,19.06-21.63c1.95-1.25,1.17-5.66,1.17-5.66
			h-7.61C82.23,29.43,82.8,34.12,78.59,35.87"/>
		<path class="st2" d="M136.27,44.36c-7.8-4.87-20.35-7.1-22.77-8.08c-3.45-1.39-3.52-6.37-3.52-6.37s-0.56,9.55,2.35,13.02
			c5.96,7.11,10.02,1.12,30.82,13.02C143.15,55.96,144.07,49.22,136.27,44.36"/>
		<path class="st2" d="M80.46,27.95l0.22-0.51l0.87-0.76l0.08-0.08h29.89l0.01,0.01l0.78,0.63l0.17,0.2l0.22,0.52v0.07H80.45
			L80.46,27.95z M81.64,18.85h1.31v3.3h-0.88l-0.44-0.05V18.85z M81.64,8.95h1.68v8.47h-1.68V8.95z M111.47,2.99v3.84
			c0,0.13-0.1,0.24-0.23,0.24c-0.13,0-0.23-0.11-0.23-0.24V2.99c0-0.13,0.1-0.24,0.23-0.24C111.37,2.75,111.47,2.86,111.47,2.99
			 M81.69,6.83V2.99c0-0.13,0.1-0.24,0.23-0.24c0.13,0,0.23,0.11,0.23,0.24v3.84c0,0.13-0.1,0.24-0.23,0.24
			C81.79,7.06,81.69,6.95,81.69,6.83 M81.64,7.36c0.09,0.05,0.18,0.08,0.28,0.08c0.33,0,0.6-0.27,0.6-0.61V2.99
			c0-0.34-0.27-0.61-0.6-0.61c-0.1,0-0.19,0.03-0.28,0.08V2.32h29.86v0.12c-0.08-0.04-0.16-0.07-0.26-0.07
			c-0.33,0-0.6,0.27-0.6,0.61v3.84c0,0.34,0.27,0.61,0.6,0.61c0.1,0,0.19-0.03,0.28-0.08l0,0.15H81.64V7.36z M81.83,1.86l29.38-0.02
			l0.11,0.01l0.08,0.09H81.76L81.83,1.86z M107.98,8.95h3.54v8.47h-3.54V8.95z M111.09,22.15h-3.11v-3.3h3.54v3.25L111.09,22.15z
			 M82.64,25.03l0.16-0.62l0.05-0.53h27.44l0.02,0.4l0.16,0.65l0.26,0.62l0.38,0.58l0.07,0.08h-29.2l0,0l0.37-0.52L82.64,25.03z
			 M110.32,23.07l-0.03,0.14H82.85l-0.03-0.14H110.32z M106.95,22.15H90.66v-3.3h16.29V22.15z M82.13,18.33h28.85l0.17,0.14h-3.16
			h-1.03H90.66h-7.71h-0.97L82.13,18.33z M90.66,17.79h20.41l-0.23,0.17H82.3l-0.23-0.17h1.24H90.66z M106.95,17.41H90.66V8.95
			h16.29V17.41z M82.03,7.88h29.18l-0.17,0.17h-28.8L82.03,7.88z M82.13,8.43h28.85l0.17,0.14H90.66h-7.34h-1.34L82.13,8.43z
			 M90.66,22.61v-0.08h16.29h1.03h2.69l-0.15,0.16H82.67l-0.06-0.09l-0.09-0.08h0.43v0.08H90.66z M45.86,62.97l0.04-1.59
			c0.28-6.39,2.82-11.86,7.35-15.83l1.79-1.47c5.03-3.67,10.95-5.6,16.67-7.48l1.99-0.65l1.95-0.73c1.64-0.66,4.11-1.65,4.69-3.59
			l0.08-3.23h32.28l0.03,2.48l0.1,0.7c0.52,1.84,3.39,2.7,6.13,3.39l4.82,1.14c5.63,1.29,10.23,2.65,14.36,5.09l1.84,1.22
			c4.49,3.25,7,7.92,7.25,13.51l0,12.6l1.94,0.3l0-11.44l-0.07-1.57c-0.28-6.2-3.06-11.39-8.06-15l-1.94-1.29
			c-4.37-2.58-9.13-3.99-14.92-5.32l-4.29-1.01l-0.57-0.15c-3.85-0.97-4.59-1.69-4.67-1.98l-0.04-2.83l0.02-0.11l-0.07-0.52
			l-0.19-0.66l-0.25-0.5l-0.41-0.54l-0.86-0.72l-0.44-0.56l-0.14-0.31l-0.09-0.38l0.28-0.08l0.51-0.39l0.33-0.56l0.1-20.62
			l0.05-0.16l-0.23-0.96l-0.33-0.47L112.08,0l-30.1-0.09l-0.15-0.03L81,0.04l-0.5,0.45l-0.58,0.79L79.78,1.9l-0.02,15.7l0,0.05
			l0,0.06l0.09,0.41l-0.09,0.45l0,3.82l0,0.06l0.13,0.56l0.34,0.53l0.53,0.37l0.21,0.05l-0.22,0.71l-0.42,0.53l-0.68,0.53
			l-0.45,0.49l-0.36,0.64l-0.2,0.58l-0.09,3.43l-0.03,0.27c-0.4,1.01-2.44,1.83-3.64,2.31l-3.74,1.3
			c-5.86,1.92-11.92,3.9-17.22,7.77l-1.3,1.03l-0.59,0.52c-4.94,4.32-7.71,10.27-8.01,17.23l0,7.54l1.84-0.3V62.97z"/>
		<path class="st2" d="M147.28,259.44c-0.18,1.64-1.33,2.89-2.81,3.11l-0.58,0.04l-21.68,0l-25.49-0.7
			c-0.03-0.05-0.09-0.09-0.15-0.09c-0.07,0-0.12,0.04-0.15,0.09l-23.07,0.7H49.3l-0.52-0.04c-1.66-0.23-2.91-1.71-2.92-3.45l0-33.87
			h1.44v31.31c0,3.16,1.85,4.33,3.75,4.33h5.55c0,0-4.27-1.5-4.27-5.49v-2.34l0.54,0.05l1.15,0.16c2.09,0.25,4.29,0.41,6.35,0.48
			l2.75,0.09l2.84,0.04c2.84,0.03,5.72,0.04,8.51,0.05c3.14,0.01,6.39,0.02,9.58,0.06l6.25,0.04l6.27,0.02l6.29-0.02l6.25-0.04
			c3.19-0.04,6.44-0.05,9.58-0.06c2.79-0.01,5.67-0.02,8.51-0.05l2.84-0.04l2.75-0.09c2.03-0.06,4.23-0.22,6.36-0.48l1.14-0.16
			l2.13-0.2c0.01,0,0.01,0,0.02-0.01c0.01,0,0.03-0.01,0.04-0.01c0.01,0,0.01-0.01,0.02-0.01c0.01-0.01,0.02-0.02,0.03-0.03
			c0.01-0.01,0.01-0.01,0.02-0.02c0.01-0.01,0.01-0.02,0.02-0.03c0-0.01,0.01-0.02,0.01-0.03c0,0,0-0.01,0-0.01
			c0-0.01,0-0.01,0-0.02c0-0.01,0-0.02,0-0.02c0,0,0-0.01,0-0.01c0-0.02-0.01-0.03-0.01-0.04c0-0.01-0.01-0.02-0.01-0.02
			c-0.01-0.02-0.02-0.03-0.04-0.04c0,0-0.01-0.01-0.01-0.01c-0.01-0.01-0.03-0.02-0.04-0.02c-0.01,0-0.02-0.01-0.03-0.01
			c0,0-0.01,0-0.01,0l-0.49-0.09l-0.52-0.13l-1.12-0.34c-2.35-0.73-4.82-1.16-7.74-1.34l-2.78-0.16l-2.84-0.07
			c-2.74-0.05-5.52-0.07-8.21-0.09c-3.19-0.02-6.48-0.05-9.72-0.11l-6.23-0.05l-6.25-0.02l-6.23,0.02l-6.16,0.05
			c-3.22,0.07-6.5,0.1-9.67,0.12c-3.65,0.02-7.43,0.05-11.15,0.15l-2.78,0.16l-1.37,0.11c-2.41,0.24-4.48,0.65-6.32,1.25l-0.52,0.15
			c0-7.03-2.66-22.51-2.66-26.9H82.8l2.13-2.19l4.8,4.93h57.55l0.01,31.01L147.28,259.44z M147.29,221.55l0,5.17h-57.4l-4.95-5.09
			l-2.29,2.35H45.86v-2.43h-1.88l-0.01,37.56c0.01,2.71,1.97,5.02,4.61,5.38l95.32,0.05l0.78-0.06c2.41-0.35,4.21-2.3,4.49-4.9
			l0-38.03H147.29z"/>
	</g>
	<polygon class="st2" points="149.17,177.2 149.17,149.24 147.26,148.85 147.27,176.07 52.73,176.07 47.3,176.07 45.86,176.07 
		45.86,148.85 44,149.24 43.99,177.2 	"/>
	<rect x="84.85" y="221.55" class="st3" width="0.17" height="0.03"/>
</g>
</svg>
