<?xml version="1.0" encoding="utf-8"?>
<!-- Generator: Adobe Illustrator 23.0.3, SVG Export Plug-In . SVG Version: 6.00 Build 0)  -->
<svg version="1.1" id="Capa_1" xmlns="http://www.w3.org/2000/svg" xmlns:xlink="http://www.w3.org/1999/xlink" x="0px" y="0px"
	 viewBox="0 0 41.49 41.5" style="enable-background:new 0 0 41.49 41.5;" xml:space="preserve">
<style type="text/css">
	.st0{fill:#841720;}
</style>
<g id="n3eMEw_2_">
	<g>
		<path class="st0" d="M22.63,0c3.4,0,5.83,1.79,6.18,4.57c0.49,3.82-2.51,6.58-6.48,5.98c-2.59-0.39-5.18,1.5-5.65,4.12
			c-0.49,2.72,1.25,5.38,3.86,5.91c0.05,0.01,0.16-0.06,0.17-0.11c1.15-5.33,6.28-9.05,11.45-8.3c5.82,0.85,9.72,5.59,9.3,11.29
			c-0.21,2.85-1.97,4.93-4.49,5.31c-2.5,0.38-4.95-0.91-5.73-3.29c-0.36-1.1-0.29-2.37-0.24-3.56c0.1-2.58-1.78-4.93-4.37-5.31
			c-2.63-0.38-5.15,1.32-5.71,3.87c-0.01,0.06,0.07,0.19,0.13,0.2c5.72,1.17,9.41,6.95,8.06,12.66c-1.33,5.64-7.11,9.25-12.55,7.84
			c-2.68-0.7-4.39-3.49-3.79-6.2c0.63-2.86,3.31-4.63,6.2-4.1c2.64,0.48,5.3-1.31,5.84-3.94c0.57-2.76-1.11-5.45-3.8-6.06
			c-0.06-0.01-0.2,0.08-0.21,0.14c-1.18,5.72-6.93,9.38-12.65,8.06c-5.63-1.3-9.27-7.12-7.85-12.54c0.7-2.69,3.49-4.4,6.2-3.8
			c2.86,0.63,4.64,3.31,4.11,6.2c-0.49,2.71,1.32,5.33,4.06,5.88c2.66,0.53,5.35-1.2,5.94-3.83c0.01-0.06-0.06-0.19-0.12-0.2
			c-5.15-1.08-8.86-6.01-8.32-11.08C12.77,4.08,17.16,0,22.63,0z"/>
	</g>
</g>
</svg>
